<svg width="100" height="70" viewBox="0 0 100 70" fill="none" xmlns="http://www.w3.org/2000/svg">
<path d="M73.4325 44.3021C72.5701 47.5291 70.0284 50.0701 66.8015 50.9325C60.9526 52.5 37.4997 52.5 37.4997 52.5C37.4997 52.5 14.0468 52.5 8.19793 50.9325C4.97098 50.0701 2.42931 47.5291 1.56686 44.3021C1.17752e-06 38.4533 0 26.25 0 26.25C0 26.25 1.17752e-06 14.0467 1.56686 8.1985C2.42931 4.97157 4.97098 2.42992 8.19793 1.56747C14.0468 8.83136e-07 37.4997 0 37.4997 0C37.4997 0 60.9526 8.83136e-07 66.8015 1.56747C70.0284 2.42992 72.5701 4.97157 73.4325 8.1985C75 14.0467 75 26.25 75 26.25C75 26.25 75 38.4533 73.4325 44.3021Z" transform="translate(0 70) scale(1.33333 -1.33333)" fill="#FF0000"/>
<path d="M0 0L19.4851 11.2501L0 22.5002V0Z" transform="translate(39.9995 50.0001) scale(1.33333 -1.33333)" fill="white"/>
</svg>
